<?xml version="1.0" encoding="utf-8"?>
<!-- Generator: Adobe Illustrator 16.0.0, SVG Export Plug-In . SVG Version: 6.00 Build 0)  -->
<!DOCTYPE svg PUBLIC "-//W3C//DTD SVG 1.1//EN" "http://www.w3.org/Graphics/SVG/1.1/DTD/svg11.dtd">
<svg version="1.1" id="Capa_1" xmlns="http://www.w3.org/2000/svg" xmlns:xlink="http://www.w3.org/1999/xlink" x="0px" y="0px"
	 width="200.002px" height="200px" viewBox="0 0 200.002 200" enable-background="new 0 0 200.002 200" xml:space="preserve">
<g>
	<path fill="#878787" d="M100.005,0.005C44.771,0.005-0.001,44.777-0.001,99.997c0,55.228,44.771,99.997,100.006,99.997
		c55.22,0,99.997-44.77,99.997-99.997C200.002,44.775,155.225,0.005,100.005,0.005z M71.915,122.104
		c-12.206,0-22.095-9.896-22.095-22.104c0-12.205,9.889-22.104,22.095-22.104c12.228,0,22.114,9.9,22.114,22.104
		C94.029,112.207,84.143,122.104,71.915,122.104z M128.078,122.104c-12.227,0-22.114-9.896-22.114-22.104
		c0-12.205,9.89-22.104,22.114-22.104c12.209,0,22.1,9.9,22.1,22.104C150.178,112.207,140.287,122.104,128.078,122.104z"/>
</g>
</svg>
