<?xml version="1.0" encoding="utf-8"?>
<!-- Generator: Adobe Illustrator 16.0.0, SVG Export Plug-In . SVG Version: 6.00 Build 0)  -->
<!DOCTYPE svg PUBLIC "-//W3C//DTD SVG 1.1//EN" "http://www.w3.org/Graphics/SVG/1.1/DTD/svg11.dtd">
<svg version="1.1" id="Capa_1" xmlns="http://www.w3.org/2000/svg" xmlns:xlink="http://www.w3.org/1999/xlink" x="0px" y="0px"
	 width="200px" height="200px" viewBox="0 0 200 200" enable-background="new 0 0 200 200" xml:space="preserve">
<g>
	<path fill="#878787" d="M134.888,193.054c-0.949,0.34-1.904,0.756-2.88,0.928c-3.749,0.67-6.144-1.268-6.165-5.09
		c-0.049-7.109-0.049-14.207,0.064-21.316c0.124-8.17-0.064-16.238-6.288-22.986c3.699-0.662,6.989-1.127,10.209-1.865
		c21.331-4.898,32.409-18.354,33.822-40.684c0.723-11.363-1.3-21.789-8.855-30.742c-0.551-0.631-0.577-2.061-0.318-2.977
		c2.012-7.4,1.429-14.632-0.917-21.865c-0.577-1.807-1.537-2.368-3.322-2.249c-6.262,0.351-12,2.545-17.06,5.927
		c-4.876,3.274-9.417,3.986-15.209,2.659c-12.761-2.875-25.597-2.039-38.331,0.912c-1.44,0.345-3.377-0.113-4.697-0.89
		c-5.977-3.5-11.952-6.903-18.846-8.257c-5.328-1.041-5.792-0.777-7.205,4.379c-1.779,6.494-1.957,12.993-0.141,19.524
		c0.26,0.955-0.01,2.476-0.646,3.177c-14.12,15.759-9.008,45.531,0.507,56.939c7.405,8.855,17.231,12.842,28.147,14.912
		c1.904,0.355,3.797,0.625,5.701,0.959c-1.634,4.25-3.102,8.27-4.762,12.217c-0.33,0.76-1.359,1.402-2.206,1.721
		c-10.7,4.152-19.901,1.1-26.028-8.613c-3.274-5.184-7.476-9.055-13.742-10.172c-0.2-0.043-0.4-0.146-0.583-0.119
		c-1.688,0.443-3.354,0.906-5.032,1.359c0.943,1.316,1.613,3.08,2.875,3.873c5.312,3.354,8.764,8.145,11.04,13.795
		c3.587,8.857,10.544,12.805,19.589,13.582c4.412,0.355,8.867,0.053,13.699,0.053c0,5.502,0.199,11.779-0.081,18.031
		c-0.146,3.371-3.532,4.719-7.583,3.338c-10.754-3.678-20.722-8.953-29.335-16.363C9.222,150.366-2.763,116.511,7.571,76.886
		C17.872,37.384,44.716,13.157,84.858,5.553c55.541-10.506,108.159,29.944,113.671,86.327
		C202.882,136.327,176.719,177.921,134.888,193.054z M82.528,144.239c-0.032,0.074-0.054,0.129-0.092,0.209
		c0.103,0.018,0.199,0.033,0.308,0.049C82.819,144.503,82.884,144.638,82.528,144.239z M57.4,161.806
		c0.863,0.533,1.694,1.213,2.632,1.51c0.34,0.107,0.977-0.668,2.098-1.5c-1.559-0.588-2.475-1.111-3.44-1.24
		C58.317,160.526,57.827,161.374,57.4,161.806z M65.312,163.165c0.124,0.576,1.284,1.305,1.958,1.293
		c0.658-0.016,1.3-0.885,1.957-1.381c-0.598-0.549-1.191-1.078-3.025-2.729C65.804,161.497,65.146,162.425,65.312,163.165z
		 M75.021,160.829c-0.814,0.193-1.504,0.949-2.254,1.467c0.437,0.555,0.873,1.068,1.574,1.936c0.966-0.885,1.624-1.498,2.287-2.098
		C76.077,161.653,75.431,160.726,75.021,160.829z M50.956,157.556c0.452,0.852,1.153,1.59,2.103,2.805
		c0.632-1.041,1.321-1.834,1.203-1.996c-0.604-0.787-1.419-1.436-2.228-2.027C51.979,156.294,50.858,157.366,50.956,157.556z"/>
</g>
</svg>
