<?xml version="1.0" encoding="utf-8"?>
<!-- Generator: Adobe Illustrator 16.0.0, SVG Export Plug-In . SVG Version: 6.00 Build 0)  -->
<!DOCTYPE svg PUBLIC "-//W3C//DTD SVG 1.1//EN" "http://www.w3.org/Graphics/SVG/1.1/DTD/svg11.dtd">
<svg version="1.1" id="Capa_1" xmlns="http://www.w3.org/2000/svg" xmlns:xlink="http://www.w3.org/1999/xlink" x="0px" y="0px"
	 width="600px" height="200px" viewBox="0 0 600 200" enable-background="new 0 0 600 200" xml:space="preserve">
<g>
	<path fill="#878787" d="M300.006,0.005C244.772,0.005,200,44.777,200,99.997c0,55.228,44.772,99.997,100.006,99.997
		c55.219,0,99.996-44.77,99.996-99.997C400.002,44.775,355.225,0.005,300.006,0.005z M271.916,122.104
		c-12.206,0-22.094-9.898-22.094-22.106c0-12.205,9.888-22.104,22.094-22.104c12.227,0,22.115,9.9,22.115,22.104
		C294.031,112.207,284.143,122.104,271.916,122.104z M328.08,122.104c-12.227,0-22.115-9.898-22.115-22.106
		c0-12.205,9.889-22.104,22.115-22.104c12.209,0,22.098,9.9,22.098,22.104C350.178,112.207,340.289,122.104,328.08,122.104z"/>
</g>
</svg>
