<svg xmlns="http://www.w3.org/2000/svg" width="300" height="200" viewBox="0 0 300 200"><style>.a{fill:#FFF;}</style><path d="M150 0C94.8 0 50 44.8 50 100s44.8 100 100 100 100-44.8 100-100S205.2 0 150 0zM200.3 82.2L175.8 106.7c-2.7 2.7-6.2 4.1-9.9 4.1 -3.7 0-7.3-1.5-9.9-4.1L155 105.7l-2.6 2.6 0.9 0.9c5.5 5.5 5.5 14.4 0 19.9L128.9 153.6c-2.7 2.7-6.2 4.1-9.9 4.1 -3.7 0-7.3-1.5-9.9-4.1l-9.3-9.3c-5.5-5.5-5.5-14.4 0-19.9L124.2 100c2.7-2.7 6.2-4.1 9.9-4.1s7.3 1.5 9.9 4.1l0.9 0.9 2.6-2.6 -0.9-0.9c-5.5-5.5-5.5-14.4 0-19.9l24.5-24.5c2.7-2.7 6.2-4.1 9.9-4.1 3.7 0 7.3 1.5 9.9 4.1l9.3 9.3C205.7 67.8 205.7 76.7 200.3 82.2z" class="a"/><path d="M145 115.7l-4.7 4.7 -7.3-7.3 4.7-4.7 -0.9-0.9c-0.7-0.7-1.6-1.1-2.6-1.1s-1.9 0.4-2.6 1.1l-24.5 24.5c-1.4 1.4-1.4 3.7 0 5.2l9.3 9.3c1.4 1.4 3.8 1.4 5.2 0L146 121.9c1.4-1.4 1.4-3.7 0-5.2L145 115.7z" class="a"/><path d="M183.7 60.4c-0.7-0.7-1.6-1.1-2.6-1.1s-1.9 0.4-2.6 1.1L154 84.9c-1.4 1.4-1.4 3.7 0 5.2L154.9 91l7.3-7.3 7.3 7.3 -7.3 7.3 0.9 0.9c1.4 1.4 3.8 1.4 5.2 0L192.9 74.8c1.4-1.4 1.4-3.7 0-5.2L183.7 60.4z" class="a"/></svg>
