<?xml version="1.0" encoding="utf-8"?>
<!-- Generator: Adobe Illustrator 16.0.0, SVG Export Plug-In . SVG Version: 6.00 Build 0)  -->
<!DOCTYPE svg PUBLIC "-//W3C//DTD SVG 1.1//EN" "http://www.w3.org/Graphics/SVG/1.1/DTD/svg11.dtd">
<svg version="1.1" id="Layer_1" xmlns="http://www.w3.org/2000/svg" xmlns:xlink="http://www.w3.org/1999/xlink" x="0px" y="0px"
	 width="300px" height="92px" viewBox="0 0 300 92" enable-background="new 0 0 300 92" xml:space="preserve">
<g>
	<path fill="#FFFFFF" d="M22.594,20.987h9.934c1.502,3.407,2.936,6.687,4.301,9.839c1.364,3.153,2.703,6.258,4.015,9.315
		c1.312,3.058,2.618,6.104,3.92,9.141c1.301,3.036,2.639,6.131,4.015,9.283h0.127c0.254-0.593,0.523-1.248,0.81-1.968
		c0.285-0.719,0.576-1.46,0.873-2.222c0.296-0.762,0.587-1.502,0.873-2.222c0.286-0.719,0.545-1.375,0.778-1.968
		c1.883-4.739,3.856-9.511,5.919-14.314c2.062-4.803,4.099-9.765,6.109-14.885h9.617v2.158c-0.825-0.021-1.534,0.09-2.126,0.334
		c-0.593,0.243-1.079,0.641-1.46,1.191s-0.65,1.281-0.81,2.191c-0.158,0.911-0.196,2.033-0.111,3.367l1.714,29.604
		c0.042,0.762,0.074,1.487,0.095,2.176c0.021,0.688,0.032,1.318,0.032,1.89l4.729-0.222V66.5H61.378v-2.127
		c1.016-0.021,1.819-0.206,2.412-0.556c0.592-0.349,1.042-0.853,1.349-1.509c0.306-0.656,0.492-1.456,0.555-2.398
		c0.063-0.941,0.063-2.027,0-3.256l-1.682-27.732c-0.127,0.317-0.265,0.65-0.413,1c-0.148,0.349-0.296,0.714-0.444,1.095
		L48.524,67.135h-1.936c-1.418-3.174-2.846-6.348-4.285-9.521c-1.439-3.174-2.862-6.369-4.269-9.585
		c-1.408-3.216-2.793-6.459-4.158-9.728c-1.364-3.27-2.682-6.586-3.951-9.95l-0.063,2.859c-0.042,1.038-0.079,2.229-0.111,3.574
		c-0.031,1.345-0.074,2.779-0.127,4.304c-0.053,1.525-0.101,3.113-0.143,4.765c-0.042,1.652-0.085,3.314-0.127,4.987
		c-0.042,1.674-0.085,3.32-0.127,4.939c-0.042,1.621-0.074,3.162-0.095,4.623c-0.021,0.975-0.042,1.938-0.063,2.891
		c-0.021,0.953-0.085,1.832-0.19,2.637l4.888-0.254V66.5h-12.41v-2.127c1.016-0.021,1.809-0.195,2.38-0.523s1.01-0.763,1.317-1.303
		c0.307-0.539,0.502-1.164,0.587-1.873c0.084-0.709,0.148-1.467,0.19-2.271l1.428-34.781l-4.666,0.159V20.987z"/>
	<path fill="#FFFFFF" d="M104.289,38.856c-0.296-0.762-0.73-1.37-1.301-1.825s-1.19-0.81-1.857-1.063
		c-0.666-0.254-1.333-0.417-1.999-0.492c-0.667-0.074-1.222-0.111-1.667-0.111c-1.481,0-2.862,0.301-4.142,0.905
		c-1.28,0.603-2.386,1.486-3.316,2.65c-0.931,1.164-1.666,2.613-2.206,4.348c-0.539,1.735-0.809,3.725-0.809,5.967
		c0,2.158,0.27,4.152,0.809,5.982c0.54,1.83,1.296,3.407,2.27,4.729c0.973,1.322,2.147,2.354,3.523,3.095
		c1.375,0.74,2.898,1.11,4.57,1.11c1.016,0,2.021-0.143,3.015-0.429c0.994-0.285,1.936-0.682,2.825-1.189s1.708-1.101,2.459-1.777
		c0.751-0.678,1.391-1.407,1.92-2.19l1.682,1.302c-0.868,1.354-1.856,2.512-2.968,3.475c-1.11,0.963-2.274,1.757-3.491,2.381
		s-2.443,1.084-3.682,1.381c-1.237,0.295-2.407,0.443-3.507,0.443c-2.201,0-4.274-0.375-6.221-1.126
		c-1.947-0.751-3.65-1.841-5.11-3.27c-1.46-1.428-2.613-3.179-3.459-5.253c-0.847-2.072-1.27-4.432-1.27-7.077
		c0-1.502,0.185-2.983,0.556-4.443c0.37-1.46,0.904-2.851,1.603-4.174c0.698-1.322,1.544-2.549,2.539-3.682
		c0.994-1.131,2.121-2.11,3.38-2.936s2.635-1.47,4.126-1.936c1.492-0.465,3.073-0.698,4.745-0.698c1.798,0,3.438,0.222,4.919,0.667
		c1.481,0.444,2.75,1.037,3.809,1.777c1.058,0.741,1.873,1.592,2.444,2.555c0.571,0.963,0.857,1.974,0.857,3.031
		c0,0.931-0.259,1.729-0.778,2.396c-0.519,0.666-1.264,1.01-2.237,1.031c-0.571,0.021-1.047-0.068-1.428-0.27
		s-0.688-0.45-0.92-0.746c-0.233-0.296-0.402-0.619-0.508-0.968c-0.106-0.35-0.159-0.661-0.159-0.937
		c0-0.423,0.068-0.867,0.207-1.333C103.648,39.692,103.908,39.258,104.289,38.856z"/>
	<path fill="#FFFFFF" d="M155.324,64.151h-1.777c-0.721,0-1.672,0.127-2.857,0.381s-2.57,0.688-4.156,1.302
		c-0.678,0.254-1.418,0.486-2.223,0.697c-0.805,0.212-1.625,0.392-2.459,0.54c-0.836,0.147-1.666,0.265-2.492,0.349
		c-0.824,0.085-1.598,0.127-2.316,0.127c-3.26,0-6.242-0.523-8.951-1.57c-2.708-1.048-5.036-2.55-6.982-4.507
		c-1.947-1.957-3.459-4.349-4.539-7.173c-1.079-2.825-1.619-6.015-1.619-9.569c0-2.031,0.206-4.057,0.619-6.078
		c0.412-2.02,1.036-3.946,1.872-5.776c0.836-1.83,1.878-3.533,3.126-5.109c1.248-1.576,2.713-2.946,4.396-4.11
		c1.682-1.164,3.575-2.073,5.68-2.729c2.105-0.656,4.418-0.984,6.936-0.984c1.164,0,2.35,0.085,3.555,0.254
		c1.207,0.169,2.391,0.408,3.555,0.714s2.285,0.682,3.365,1.126c1.078,0.444,2.072,0.942,2.982,1.492l-0.285-3.11h3.586v14.885
		h-2.348c-0.148-2.036-0.604-3.85-1.365-5.44c-0.762-1.591-1.762-2.927-3-4.009c-1.238-1.082-2.676-1.909-4.316-2.481
		s-3.4-0.859-5.283-0.859c-2.307,0-4.477,0.514-6.508,1.541c-2.031,1.027-3.798,2.456-5.3,4.288
		c-1.502,1.832-2.693,4.013-3.571,6.543c-0.878,2.531-1.317,5.31-1.317,8.337c0,3.071,0.423,5.903,1.27,8.497
		c0.846,2.594,2.036,4.828,3.571,6.701c1.534,1.874,3.369,3.341,5.507,4.399c2.137,1.059,4.484,1.588,7.045,1.588
		c0.867,0,1.777-0.063,2.73-0.19c0.951-0.127,1.908-0.317,2.871-0.571s1.914-0.587,2.857-1c0.941-0.412,1.834-0.904,2.682-1.476
		V46.949l-4.57,0.254v-2.856h14.695v2.126c-0.805,0-1.482,0.154-2.031,0.46c-0.551,0.307-0.996,0.698-1.334,1.174
		c-0.338,0.477-0.598,1.006-0.777,1.587c-0.18,0.583-0.307,1.159-0.381,1.729c-0.074,0.572-0.117,1.106-0.127,1.604
		c-0.012,0.497-0.016,0.895-0.016,1.189V64.151z"/>
	<path fill="#FFFFFF" d="M188.363,42.543c0-1.059,0.021-1.965,0.063-2.717c0.042-0.752,0.127-1.499,0.254-2.24l-4.666,0.19v-2.666h2
		c0.931,0,1.725-0.047,2.381-0.143c0.655-0.095,1.216-0.227,1.682-0.396c0.465-0.169,0.852-0.354,1.158-0.556
		c0.307-0.201,0.588-0.417,0.842-0.65h1.872l-0.063,24.565c0,0.339-0.006,0.767-0.016,1.285c-0.011,0.519-0.027,1.059-0.048,1.619
		c-0.021,0.561-0.048,1.122-0.079,1.682c-0.032,0.562-0.069,1.063-0.111,1.508l4.666-0.254V66.5h-9.3
		c-0.106-0.74-0.196-1.423-0.27-2.047c-0.074-0.624-0.133-1.243-0.175-1.857c-0.678,0.678-1.428,1.317-2.254,1.921
		c-0.824,0.603-1.697,1.126-2.618,1.571c-0.92,0.443-1.867,0.798-2.841,1.062c-0.973,0.265-1.936,0.396-2.888,0.396
		c-1.777,0-3.333-0.237-4.665-0.714c-1.334-0.476-2.444-1.264-3.333-2.364c-0.889-1.1-1.556-2.555-1.999-4.364
		c-0.445-1.809-0.667-4.057-0.667-6.744V41.808c0-0.677,0.011-1.365,0.032-2.063c0.021-0.698,0.095-1.417,0.222-2.158l-4.476,0.19
		v-2.666h2.031c0.91,0,1.693-0.047,2.35-0.143c0.655-0.095,1.216-0.227,1.682-0.396c0.465-0.169,0.852-0.354,1.158-0.556
		c0.307-0.201,0.588-0.417,0.842-0.65h1.872V53.19c0,1.886,0.127,3.521,0.381,4.909c0.254,1.387,0.661,2.541,1.222,3.463
		c0.561,0.921,1.285,1.599,2.174,2.033c0.889,0.434,1.979,0.65,3.27,0.65c0.825,0,1.635-0.137,2.428-0.412
		c0.794-0.275,1.55-0.646,2.27-1.112c0.719-0.466,1.391-0.995,2.016-1.589c0.624-0.594,1.158-1.229,1.603-1.906v-2.701V42.543z"/>
	<path fill="#FFFFFF" d="M206.898,41.808c0-0.677,0.016-1.333,0.047-1.968c0.032-0.635,0.101-1.386,0.207-2.253l-4.603,0.254v-2.729
		c1.417,0,2.592-0.047,3.522-0.143c0.932-0.095,1.693-0.227,2.285-0.396c0.593-0.169,1.053-0.354,1.381-0.556
		c0.328-0.201,0.619-0.417,0.873-0.65h1.873v26.248c0,0.867-0.012,1.634-0.032,2.301c-0.021,0.666-0.095,1.37-0.222,2.11l4.094-0.19
		V66.5h-13.267v-1.936c0.994,0,1.751-0.195,2.27-0.588c0.518-0.391,0.894-0.936,1.126-1.635c0.233-0.697,0.365-1.533,0.397-2.507
		c0.031-0.974,0.048-2.042,0.048-3.206V41.808z M213.087,23.082c0,0.529-0.101,1.026-0.302,1.492
		c-0.201,0.466-0.46,0.873-0.777,1.222c-0.317,0.349-0.688,0.619-1.111,0.809c-0.423,0.19-0.867,0.286-1.332,0.286
		c-0.466,0-0.91-0.095-1.334-0.286c-0.423-0.19-0.799-0.46-1.126-0.809c-0.328-0.35-0.582-0.756-0.762-1.222
		c-0.181-0.465-0.271-0.962-0.271-1.492c0-0.55,0.096-1.063,0.286-1.539c0.19-0.477,0.449-0.894,0.777-1.254
		c0.328-0.359,0.703-0.64,1.127-0.841c0.423-0.201,0.878-0.302,1.364-0.302c0.487,0,0.937,0.101,1.35,0.302
		c0.412,0.201,0.777,0.481,1.095,0.841c0.317,0.36,0.565,0.777,0.746,1.254C212.997,22.019,213.087,22.532,213.087,23.082z"/>
	<path fill="#FFFFFF" d="M239.97,36.507c-0.825-0.021-1.661,0.132-2.507,0.46c-0.847,0.328-1.678,0.809-2.492,1.444
		s-1.582,1.396-2.301,2.285c-0.72,0.889-1.365,1.873-1.936,2.952l0.062,15.965c0,0.867-0.011,1.634-0.031,2.301
		c-0.021,0.666-0.096,1.37-0.223,2.11l4.095-0.19V66.5h-13.33v-1.936c0.994,0,1.751-0.195,2.27-0.588
		c0.518-0.391,0.894-0.936,1.126-1.635c0.233-0.697,0.365-1.533,0.397-2.507c0.031-0.974,0.048-2.042,0.048-3.206V41.776
		c0-0.677,0.01-1.359,0.031-2.047c0.021-0.687,0.096-1.401,0.223-2.142l-4.603,0.19v-2.666h1.999c0.932,0,1.703-0.047,2.317-0.143
		c0.613-0.095,1.127-0.227,1.539-0.396c0.413-0.169,0.757-0.354,1.032-0.556c0.274-0.201,0.539-0.417,0.793-0.65h1.873
		c0.062,0.677,0.121,1.519,0.174,2.523s0.101,2.301,0.143,3.888c0.487-0.804,1.111-1.613,1.873-2.428s1.619-1.544,2.57-2.19
		c0.953-0.645,1.979-1.174,3.079-1.587c1.1-0.412,2.232-0.619,3.396-0.619c0.593,0,1.169,0.08,1.73,0.238
		c0.561,0.159,1.047,0.408,1.46,0.746c0.412,0.339,0.745,0.762,0.999,1.27s0.381,1.122,0.381,1.841c0,0.296-0.058,0.625-0.174,0.984
		c-0.117,0.36-0.308,0.698-0.571,1.016c-0.265,0.317-0.599,0.582-1,0.793c-0.402,0.212-0.899,0.317-1.491,0.317
		c-0.487,0-0.927-0.105-1.317-0.317c-0.392-0.211-0.72-0.481-0.984-0.81c-0.265-0.328-0.455-0.708-0.571-1.143
		C239.933,37.455,239.906,36.994,239.97,36.507z"/>
	<path fill="#FFFFFF" d="M278.437,47.33l-22.884,0.381c-0.021,2.502,0.17,4.77,0.572,6.805c0.401,2.036,1.036,3.773,1.904,5.216
		c0.867,1.441,1.983,2.554,3.348,3.339c1.365,0.785,3,1.176,4.904,1.176c1.016,0,2.052-0.138,3.109-0.414
		c1.059-0.277,2.079-0.654,3.063-1.134c0.983-0.479,1.888-1.054,2.714-1.724c0.824-0.67,1.512-1.389,2.062-2.155l1.587,1.302
		c-0.889,1.354-1.92,2.502-3.095,3.443c-1.174,0.941-2.391,1.709-3.649,2.301c-1.26,0.593-2.523,1.021-3.793,1.285
		s-2.455,0.396-3.555,0.396c-2.243,0-4.332-0.402-6.269-1.205c-1.936-0.805-3.613-1.957-5.03-3.46
		c-1.418-1.502-2.534-3.312-3.349-5.427c-0.814-2.116-1.222-4.496-1.222-7.142c0-2.285,0.392-4.47,1.175-6.554
		c0.782-2.084,1.893-3.93,3.332-5.539c1.438-1.608,3.163-2.888,5.174-3.84c2.01-0.952,4.241-1.428,6.696-1.428
		c1.798,0,3.496,0.296,5.094,0.889c1.598,0.593,2.999,1.481,4.206,2.666c1.205,1.185,2.158,2.682,2.855,4.491
		C278.088,42.808,278.437,44.918,278.437,47.33z M265.297,35.523c-2.539,0-4.634,0.743-6.284,2.23s-2.74,3.896-3.269,7.228h16.566
		c0-1.139-0.127-2.272-0.381-3.4s-0.661-2.141-1.222-3.037s-1.285-1.624-2.174-2.183C267.646,35.803,266.566,35.523,265.297,35.523z
		"/>
</g>
</svg>
