<svg xmlns="http://www.w3.org/2000/svg" id="pattern" width="500" height="600" viewBox="0 0 2000 800"><style>  .randColor{fill:#B7D968;} .randColor2{fill:#9BCFDD;} .randColor3{fill:#E24B36;}</style><path d="M506.5 239c-17.2 0-31.3-14-31.3-31.3s14-31.3 31.3-31.3 31.3 14 31.3 31.3S523.8 239 506.5 239zM506.5 182.4c-13.9 0-25.3 11.3-25.3 25.3S492.6 233 506.5 233s25.3-11.3 25.3-25.3S520.5 182.4 506.5 182.4z" class="randColor"/><path d="M1264.7 124.6c-7.3 0-13.3-6-13.3-13.3s6-13.3 13.3-13.3 13.3 6 13.3 13.3S1272 124.6 1264.7 124.6zM1264.7 100.6c-5.9 0-10.7 4.8-10.7 10.7s4.8 10.7 10.7 10.7 10.7-4.8 10.7-10.7S1270.6 100.6 1264.7 100.6z" class="randColor"/><path d="M1528.4 491.1c-13 0-23.7-10.6-23.7-23.7s10.6-23.7 23.7-23.7 23.7 10.6 23.7 23.7S1541.5 491.1 1528.4 491.1zM1528.4 448.3c-10.5 0-19.1 8.6-19.1 19.1s8.6 19.1 19.1 19.1c10.5 0 19.1-8.6 19.1-19.1S1539 448.3 1528.4 448.3z" class="randColor"/><path d="M660.3 498.6c-5.6 0-10.2-4.6-10.2-10.2s4.6-10.2 10.2-10.2 10.2 4.6 10.2 10.2S665.9 498.6 660.3 498.6zM660.3 480.2c-4.5 0-8.2 3.7-8.2 8.2 0 4.5 3.7 8.2 8.2 8.2 4.5 0 8.2-3.7 8.2-8.2C668.5 483.9 664.9 480.2 660.3 480.2z" class="randColor3"/><path d="M979.2 393.9c0.3-1.3 1.7-2.1 3-1.7l39.6 10.6c1.3 0.3 2.1 1.7 1.7 3l0 0c-0.3 1.3-1.7 2.1-3 1.7l-39.6-10.6C979.6 396.5 978.8 395.2 979.2 393.9" class="randColor2"/><path d="M995.4 421.9L995.4 421.9c-1.3-0.3-2.1-1.7-1.7-3l10.6-39.6c0.3-1.3 1.7-2.1 3-1.7l0 0c1.3 0.3 2.1 1.7 1.7 3l-10.6 39.6C998 421.5 996.7 422.3 995.4 421.9z" class="randColor2"/><path d="M397.9 389.5c0.6-2.3 3-3.7 5.3-3l70.1 18.8c2.3 0.6 3.7 3 3 5.3l0 0c-0.6 2.3-3 3.7-5.3 3l-70.1-18.8C398.7 394.1 397.3 391.8 397.9 389.5" class="randColor2"/><path d="M426.6 439.2L426.6 439.2c-2.3-0.6-3.7-3-3-5.3l18.8-70.1c0.6-2.3 3-3.7 5.3-3l0 0c2.3 0.6 3.7 3 3 5.3l-18.8 70.1C431.3 438.5 428.9 439.8 426.6 439.2z" class="randColor2"/><path d="M1754.9 496.2c0.4-1.4 1.8-2.3 3.3-1.9l43.4 11.6c1.4 0.4 2.3 1.8 1.9 3.3l0 0c-0.4 1.4-1.8 2.3-3.3 1.9l-43.4-11.6C1755.4 499 1754.5 497.6 1754.9 496.2" class="randColor2"/><path d="M1772.7 527L1772.7 527c-1.4-0.4-2.3-1.8-1.9-3.3l11.6-43.4c0.4-1.4 1.8-2.3 3.3-1.9l0 0c1.4 0.4 2.3 1.8 1.9 3.3l-11.6 43.4C1775.6 526.5 1774.1 527.3 1772.7 527z" class="randColor2"/><path d="M1687 204.8c0.2-0.6 0.8-1 1.5-0.8l19.4 5.2c0.6 0.2 1 0.8 0.8 1.5l0 0c-0.2 0.6-0.8 1-1.5 0.8l-19.4-5.2C1687.2 206.1 1686.9 205.4 1687 204.8" class="randColor3"/><path d="M1695 218.6L1695 218.6c-0.6-0.2-1-0.8-0.8-1.5l5.2-19.4c0.2-0.6 0.8-1 1.5-0.8l0 0c0.6 0.2 1 0.8 0.8 1.5l-5.2 19.4C1696.2 218.3 1695.6 218.7 1695 218.6z" class="randColor3"/><path d="M1317.6 289.9c1-3.6 4.7-5.8 8.4-4.8l111.4 29.9c3.7 1 5.8 4.7 4.8 8.4l0 0c-1 3.6-4.7 5.8-8.4 4.8l-111.4-29.9C1318.8 297.3 1316.6 293.5 1317.6 289.9" class="randColor3"/><path d="M1363.2 368.9L1363.2 368.9c-3.6-1-5.8-4.7-4.8-8.4l29.9-111.4c1-3.6 4.7-5.8 8.4-4.8l0 0c3.6 1 5.8 4.7 4.8 8.4l-29.9 111.4C1370.6 367.7 1366.9 369.8 1363.2 368.9z" class="randColor3"/><path d="M1208.7 630.9c-20.1 0-36.5-16.4-36.5-36.5 0-20.1 16.4-36.5 36.5-36.5s36.5 16.4 36.5 36.5C1245.3 614.5 1228.9 630.9 1208.7 630.9zM1208.7 564.8c-16.3 0-29.5 13.2-29.5 29.5 0 16.3 13.2 29.5 29.5 29.5s29.5-13.2 29.5-29.5C1238.2 578 1225 564.8 1208.7 564.8z" class="randColor"/><path d="M825.3 664.1c-5.9 0-10.6-4.8-10.6-10.6 0-5.9 4.8-10.6 10.6-10.6s10.6 4.8 10.6 10.6C836 659.3 831.2 664.1 825.3 664.1zM825.3 644.9c-4.7 0-8.6 3.9-8.6 8.6s3.9 8.6 8.6 8.6 8.6-3.9 8.6-8.6S830.1 644.9 825.3 644.9z" class="randColor3"/><path d="M292.5 619.6c-8.1 0-14.6-6.6-14.6-14.6s6.6-14.6 14.6-14.6 14.6 6.6 14.6 14.6S300.6 619.6 292.5 619.6zM292.5 593.1c-6.5 0-11.8 5.3-11.8 11.8s5.3 11.8 11.8 11.8 11.8-5.3 11.8-11.8S299 593.1 292.5 593.1z" class="randColor"/></svg>
