<?xml version="1.0" encoding="utf-8"?>
<!-- Generator: Adobe Illustrator 16.0.0, SVG Export Plug-In . SVG Version: 6.00 Build 0)  -->
<!DOCTYPE svg PUBLIC "-//W3C//DTD SVG 1.1//EN" "http://www.w3.org/Graphics/SVG/1.1/DTD/svg11.dtd">
<svg version="1.1" id="Capa_1" xmlns="http://www.w3.org/2000/svg" xmlns:xlink="http://www.w3.org/1999/xlink" x="0px" y="0px"
	 width="199.998px" height="199.5px" viewBox="0 0 199.998 199.5" enable-background="new 0 0 199.998 199.5" xml:space="preserve">
<g>
	<path fill="#878787" d="M99.25-0.249C44.987-0.249,1,43.739,1,98c0,54.261,43.987,98.25,98.25,98.25S197.5,152.262,197.5,98
		C197.5,43.739,153.512-0.249,99.25-0.249z M147.709,82.515c0.046,1.005,0.069,2.019,0.069,3.037
		c0,31.037-23.623,66.821-66.818,66.821c-13.262,0-25.61-3.887-35.997-10.553c1.833,0.222,3.707,0.33,5.599,0.33
		c11.005,0,21.131-3.751,29.17-10.051c-10.28-0.192-18.952-6.979-21.939-16.312c1.434,0.273,2.903,0.421,4.419,0.421
		c2.14,0,4.218-0.285,6.187-0.827c-10.742-2.154-18.84-11.646-18.84-23.026c0-0.098,0-0.198,0.001-0.297
		c3.166,1.763,6.789,2.819,10.637,2.94c-6.298-4.211-10.447-11.402-10.447-19.548c0-4.303,1.159-8.34,3.179-11.808
		c11.585,14.213,28.89,23.561,48.407,24.541c-0.401-1.72-0.609-3.511-0.609-5.353c0-12.967,10.516-23.483,23.481-23.483
		c6.759,0,12.863,2.85,17.146,7.413c5.348-1.052,10.378-3.005,14.914-5.698c-1.758,5.488-5.477,10.084-10.328,12.991
		c4.75-0.564,9.278-1.827,13.488-3.694C156.284,75.07,152.301,79.205,147.709,82.515z"/>
</g>
</svg>
