<?xml version="1.0" encoding="utf-8"?>
<!-- Generator: Adobe Illustrator 16.0.0, SVG Export Plug-In . SVG Version: 6.00 Build 0)  -->
<!DOCTYPE svg PUBLIC "-//W3C//DTD SVG 1.1//EN" "http://www.w3.org/Graphics/SVG/1.1/DTD/svg11.dtd">
<svg version="1.1" id="Capa_1" xmlns="http://www.w3.org/2000/svg" xmlns:xlink="http://www.w3.org/1999/xlink" x="0px" y="0px"
	 width="600px" height="200px" viewBox="0 0 600 200" enable-background="new 0 0 600 200" xml:space="preserve">
<g>
	<path fill="#878787" d="M300.001,0c-55.228,0-99.999,44.771-99.999,99.999c0,55.228,44.771,99.999,99.999,99.999
		c55.228,0,99.999-44.771,99.999-99.999C400,44.771,355.229,0,300.001,0z M349.325,84.238c0.047,1.023,0.069,2.055,0.069,3.091
		c0,31.589-24.043,68.011-68.008,68.011c-13.497,0-26.065-3.956-36.637-10.74c1.866,0.224,3.774,0.336,5.699,0.336
		c11.202,0,21.507-3.82,29.689-10.232c-10.462-0.195-19.288-7.105-22.329-16.6c1.459,0.278,2.954,0.426,4.498,0.426
		c2.177,0,4.293-0.29,6.296-0.84c-10.933-2.194-19.175-11.854-19.175-23.436c0-0.1,0-0.201,0.001-0.303
		c3.222,1.795,6.909,2.87,10.826,2.993c-6.41-4.286-10.633-11.605-10.633-19.896c0-4.38,1.18-8.489,3.237-12.018
		c11.79,14.466,29.404,23.981,49.268,24.978c-0.409-1.751-0.621-3.574-0.621-5.448c0-13.198,10.704-23.902,23.902-23.902
		c6.879,0,13.092,2.901,17.45,7.545c5.443-1.071,10.562-3.059,15.18-5.799c-1.788,5.585-5.575,10.264-10.512,13.222
		c4.834-0.574,9.443-1.86,13.729-3.76C358.051,76.66,353.999,80.869,349.325,84.238z"/>
</g>
</svg>
